# xmcd
#
# Track frame offsets:
#	150
#	17327
#	33268
#	52270
#	68849
#	78103
#	94630
#	110126
#
# Disc length: 1805 seconds
#
# Revision: 0
# Processed by: cddbd v1.5.2PL0 Copyright (c) Steve Scherf et al.
# Submitted via: EZCDAudioConverter 8.5.0.1
#
DISCID=5c070b08
DTITLE=Halm - Second Skin
DYEAR=2019
DGENRE=Country
TTITLE0=Barb Wire
TTITLE1=Hard to Love
TTITLE2=Second Skin
TTITLE3=Reason to Try
TTITLE4=Hemmanet
TTITLE5=Wrong Side of Town
TTITLE6=Rising Water
TTITLE7=Burning Love
EXTD=
EXTT0=
EXTT1=
EXTT2=
EXTT3=
EXTT4=
EXTT5=
EXTT6=
EXTT7=
PLAYORDER=
